<svg xmlns="http://www.w3.org/2000/svg" id="Layer_1" viewBox="0 0 64 64"><path fill="#e74c3c" d="M55.5 56.5h-45a3 3 0 0 1-3-3v-30a3 3 0 0 1 3-3h45a3 3 0 0 1 3 3v30a3 3 0 0 1-3 3z"/><path fill="#3498db" d="M11.5 25.5h34v26h-34z"/><circle cx="28.5" cy="31.5" r="3" fill="#f0c9ae"/><path fill="#2c3e50" d="M34.5 42.5v-3a3 3 0 0 0-3-3h-6a3 3 0 0 0-3 3v3"/><path fill="#ecf0f1" d="M28.51 39.374l-1.477-2.843h2.954z"/><path fill="#2c3e50" d="M39.5 20.5h-15a3 3 0 0 1 3-3h9a3 3 0 0 1 3 3z"/><path fill="#f8b545" d="M37 45.5H20a1.5 1.5 0 0 1 0-3h17a1.5 1.5 0 0 1 0 3zM20.5 45.5h16v6h-16z"/><path fill="#2c3e50" d="M16.5 59.5h-3a1 1 0 0 1-1-1v-2h5v2a1 1 0 0 1-1 1zM51.5 59.5h-3a1 1 0 0 1-1-1v-2h5v2a1 1 0 0 1-1 1z"/><ellipse cx="51.5" cy="48.5" fill="#ecf0f1" rx="3" ry="3" transform="rotate(-45.001 51.5 48.5)"/><circle cx="51.5" cy="37.5" r="3" fill="#ecf0f1"/><path fill="#212e3a" d="M55.5 57h-45C8.571 57 7 55.43 7 53.5v-30c0-1.93 1.57-3.5 3.5-3.5h45c1.93 0 3.5 1.57 3.5 3.5v30c0 1.93-1.57 3.5-3.5 3.5zm-45-36A2.502 2.502 0 0 0 8 23.5v30c0 1.379 1.121 2.5 2.5 2.5h45c1.379 0 2.5-1.121 2.5-2.5v-30c0-1.379-1.121-2.5-2.5-2.5h-45z"/><path fill="#212e3a" d="M39.5 21h-15a.5.5 0 0 1-.5-.5c0-1.93 1.57-3.5 3.5-3.5h9c1.93 0 3.5 1.57 3.5 3.5a.5.5 0 0 1-.5.5zm-14.45-1h13.9a2.504 2.504 0 0 0-2.45-2h-9c-1.207 0-2.218.86-2.45 2zM45.5 52h-34a.5.5 0 0 1-.5-.5v-26a.5.5 0 0 1 .5-.5h34a.5.5 0 0 1 .5.5v26a.5.5 0 0 1-.5.5zM12 51h33V26H12v25z"/><path fill="#212e3a" d="M37 46H20c-1.103 0-2-.897-2-2s.897-2 2-2h17c1.103 0 2 .897 2 2s-.897 2-2 2zm-17-3a1 1 0 0 0 0 2h17a1 1 0 0 0 0-2H20z"/><path fill="#212e3a" d="M36.5 52h-16a.5.5 0 0 1-.5-.5v-6a.5.5 0 0 1 .5-.5h16a.5.5 0 0 1 .5.5v6a.5.5 0 0 1-.5.5zM21 51h15v-5H21v5zM49.378 51.121a.5.5 0 0 1-.354-.853l4.243-4.242a.5.5 0 0 1 .707.707l-4.243 4.242a.498.498 0 0 1-.353.146zM16.5 60h-3c-.827 0-1.5-.673-1.5-1.5v-2a.5.5 0 0 1 .5-.5h5a.5.5 0 0 1 .5.5v2c0 .827-.673 1.5-1.5 1.5zM13 57v1.5c0 .275.225.5.5.5h3c.275 0 .5-.225.5-.5V57h-4zM51.5 60h-3c-.827 0-1.5-.673-1.5-1.5v-2a.5.5 0 0 1 .5-.5h5a.5.5 0 0 1 .5.5v2c0 .827-.673 1.5-1.5 1.5zM48 57v1.5c0 .275.225.5.5.5h3c.275 0 .5-.225.5-.5V57h-4z"/><path fill="#212e3a" d="M51.499 51.998a3.492 3.492 0 0 1-2.475-1.023 3.504 3.504 0 0 1 0-4.949 3.504 3.504 0 0 1 4.95 0A3.47 3.47 0 0 1 55 48.5a3.492 3.492 0 0 1-3.501 3.498zm.001-5.997c-.641 0-1.281.244-1.769.731a2.503 2.503 0 0 0 0 3.535c.973.974 2.56.975 3.536 0A2.473 2.473 0 0 0 54 48.5a2.494 2.494 0 0 0-2.5-2.499zM51.5 41a.5.5 0 0 1-.5-.5v-6a.5.5 0 0 1 1 0v6a.5.5 0 0 1-.5.5z"/><path fill="#212e3a" d="M51.5 41c-1.93 0-3.5-1.57-3.5-3.5s1.57-3.5 3.5-3.5 3.5 1.57 3.5 3.5-1.57 3.5-3.5 3.5zm0-6c-1.379 0-2.5 1.121-2.5 2.5s1.121 2.5 2.5 2.5 2.5-1.121 2.5-2.5-1.121-2.5-2.5-2.5zM32 18a.5.5 0 0 1-.354-.853l8.485-8.485a.5.5 0 0 1 .707.707l-8.485 8.485A.498.498 0 0 1 32 18z"/><path fill="#212e3a" d="M32 18a.502.502 0 0 1-.354-.146l-13-13a.5.5 0 0 1 .707-.707l13 13A.5.5 0 0 1 32 18zM28.5 35c-1.93 0-3.5-1.57-3.5-3.5s1.57-3.5 3.5-3.5 3.5 1.57 3.5 3.5-1.57 3.5-3.5 3.5zm0-6c-1.379 0-2.5 1.121-2.5 2.5s1.121 2.5 2.5 2.5 2.5-1.121 2.5-2.5-1.121-2.5-2.5-2.5zM34.5 43a.5.5 0 0 1-.5-.5v-3c0-1.379-1.121-2.5-2.5-2.5h-6a2.502 2.502 0 0 0-2.5 2.5v3a.5.5 0 0 1-1 0v-3c0-1.93 1.57-3.5 3.5-3.5h6c1.93 0 3.5 1.57 3.5 3.5v3a.5.5 0 0 1-.5.5z"/><path fill="#212e3a" d="M25.5 43a.5.5 0 0 1-.5-.5v-2a.5.5 0 0 1 1 0v2a.5.5 0 0 1-.5.5zM42.5 29h-3a.5.5 0 0 1 0-1h3a.5.5 0 0 1 0 1zM31.5 49h-6a.5.5 0 0 1 0-1h6a.5.5 0 0 1 0 1zM41.5 31h-1a.5.5 0 0 1 0-1h1a.5.5 0 0 1 0 1zM31.5 43a.5.5 0 0 1-.5-.5v-2a.5.5 0 0 1 1 0v2a.5.5 0 0 1-.5.5zM28.51 39.874a.498.498 0 0 1-.443-.27l-1.478-2.843a.5.5 0 0 1 .444-.73h2.954a.501.501 0 0 1 .444.73l-1.477 2.843a.5.5 0 0 1-.444.27zm-.654-2.843l.654 1.259.653-1.259h-1.307z"/></svg>