<svg xmlns="http://www.w3.org/2000/svg" id="Layer_1" viewBox="0 0 64 64"><path fill="#ecf0f1" d="M49.5 12.5h-45v41.688A5.312 5.312 0 0 0 9.812 59.5c2.357 0 4.57-1.4 5.36-3.621a5.482 5.482 0 0 0 .104-3.379H49.5v-40z"/><path fill="#3498db" d="M24 40a1.99 1.99 0 0 1-1.414-.586l-6-6a2 2 0 1 1 2.828-2.828L24 35.172l10.586-10.586a2 2 0 1 1 2.828 2.828l-12 12A1.99 1.99 0 0 1 24 40z"/><path fill="#e0e2e2" d="M54.5 59.5H54c3.017 0 5.5-2.483 5.5-5.5a5.498 5.498 0 0 0-2.357-4.5h-44A5.498 5.498 0 0 1 15.5 54c0 .414-.051.817-.14 1.207-.556 2.444-2.757 4.293-5.36 4.293"/><path fill="#212e3a" d="M4.5 55a.5.5 0 0 1-.5-.5v-42a.5.5 0 0 1 .5-.5h45a.5.5 0 0 1 .5.5v37a.5.5 0 0 1-1 0V13H5v41.5a.5.5 0 0 1-.5.5z"/><path fill="#212e3a" d="M54.5 60h-45a.513.513 0 0 1-.197-.04A6.01 6.01 0 0 1 4 54a.5.5 0 0 1 1 0c0 2.757 2.243 5 5 5 2.309 0 4.357-1.642 4.873-3.904.084-.37.127-.739.127-1.096a5 5 0 0 0-2.144-4.09.5.5 0 0 1 .287-.91h44c.103 0 .202.031.286.09A6.002 6.002 0 0 1 60 54a6.01 6.01 0 0 1-5.303 5.96.513.513 0 0 1-.197.04zm-41.212-1H54c2.757 0 5-2.243 5-5a4.998 4.998 0 0 0-2.019-4H14.458A5.986 5.986 0 0 1 16 54c0 .432-.051.876-.152 1.318A6.045 6.045 0 0 1 13.288 59zM24 40.5c-.668 0-1.295-.26-1.768-.732l-6-6a2.502 2.502 0 0 1 0-3.535c.943-.945 2.592-.945 3.535 0L24 34.465l10.232-10.232c.975-.975 2.561-.975 3.535 0s.975 2.561 0 3.535l-12 12A2.482 2.482 0 0 1 24 40.5zm-6-10a1.501 1.501 0 0 0-1.061 2.56l6 6c.566.566 1.555.566 2.121 0l12-12a1.501 1.501 0 0 0 0-2.121 1.503 1.503 0 0 0-2.121 0L24.354 35.525a.5.5 0 0 1-.707 0l-4.586-4.586A1.494 1.494 0 0 0 18 30.5z"/></svg>